<svg xmlns="http://www.w3.org/2000/svg" id="Layer_1" data-name="Layer 1" viewBox="0 0 99.21 99.21" class="svg replaced-svg"><defs><style>.cls-2{fill:#002139}</style></defs><circle cx="50.06" cy="37.64" r="13.97" fill="#00b140"></circle><path class="cls-2" d="M58.29 49c.2-.15.39-.31.59-.48a14.89 14.89 0 10-21.46-2.42 15.23 15.23 0 001.41 1.6 1.44 1.44 0 002 0 1.46 1.46 0 000-2 10.94 10.94 0 01-1.14-1.3 12 12 0 1116.84 2.3 1.08 1.08 0 00-.33.38 1.41 1.41 0 00.05 1.64 1.4 1.4 0 001.15.57 1.44 1.44 0 00.89-.29z"></path><path class="cls-2" d="M44.88 56c-.5-.13-1-.29-1.61-.49a18.5 18.5 0 01-8.74-6.37 4.32 4.32 0 00-3.18-7.25h-.17a18.73 18.73 0 0117.5-22.8 1.46 1.46 0 001-.46 1.48 1.48 0 00.38-1.05 1.5 1.5 0 00-.49-1 1.46 1.46 0 00-1-.35A21.61 21.61 0 0028.48 43 4.3 4.3 0 0027 46.19a4.34 4.34 0 004.34 4.33 4.07 4.07 0 00.61-.06 21.54 21.54 0 0012.82 8.45h.1a21.6 21.6 0 002.95.43v-2.86A17 17 0 0145 56zM30.12 45.46a.67.67 0 01.09-.14l.09-.11a1 1 0 01.15-.13h.05a1.45 1.45 0 01.32-.18h.53a1.43 1.43 0 011.43 1.43 1.41 1.41 0 01-.4 1l-.06.07-.15.12-.08.05a1.4 1.4 0 01-.17.09h-.08l-.19.06h-.27a1.43 1.43 0 01-.29 0H31a1.44 1.44 0 01-1.09-1.4 1.38 1.38 0 01.21-.86zM51 56.48V59a1.27 1.27 0 000 .34 20.8 20.8 0 003-.34v-3h-.12a16.23 16.23 0 01-2.88.48zm9-3.21l-.27.18a18.21 18.21 0 01-2.18 1.24l-.55.25v3.12l.2-.06c.5-.19 1-.42 1.64-.7.4-.2.82-.4 1.2-.63v-3.4zm9-24.83a2.12 2.12 0 00-.12-.2 4.29 4.29 0 001-2.79 4.34 4.34 0 10-4.33 4.33 4.28 4.28 0 00.81-.08 18.59 18.59 0 01.79 14.3 18.3 18.3 0 01-2.73 5.09 17.82 17.82 0 01-2 2.2 1.32 1.32 0 01.22.18l.13.15a1.51 1.51 0 01.33.94v2l.3-.26a21.14 21.14 0 004.13-4.63c.06-.1.12-.19.17-.29A21.17 21.17 0 0069.87 45 21.49 21.49 0 0069 28.44zm-4.85-3a1.44 1.44 0 111.44 1.44 1.43 1.43 0 01-1.48-1.43z"></path><path class="cls-2" d="M49.47 31.34a6.46 6.46 0 00-1.6 12.73v-2a4.51 4.51 0 01-2.8-3.14 4.13 4.13 0 01-.15-1.11 4.54 4.54 0 119.08 0 4.25 4.25 0 01-.2 1.33 4.56 4.56 0 01-2.86 3v2a6.31 6.31 0 003-1.64 6.46 6.46 0 00-4.48-11.11z"></path><path class="cls-2" d="M49.47 30.86a6.94 6.94 0 00-4.95 11.82c.11.12.23.22.34.33a7 7 0 002.9 1.53h.11v-3a4 4 0 01-2.34-2.74 3.11 3.11 0 01-.11-.69 1.37 1.37 0 010-.29 4.06 4.06 0 118.12 0 3.59 3.59 0 010 .47 2.9 2.9 0 01-.15.71 4 4 0 01-2.4 2.59v3h.1A6.78 6.78 0 0054 43.11l.33-.31a6.94 6.94 0 00-4.81-11.94zm4.79 8.42a4.8 4.8 0 00.22-1.47 5 5 0 10-10 0A4.39 4.39 0 0044.6 39a4.56 4.56 0 00.28.81 4.94 4.94 0 002.51 2.54v1A5.87 5.87 0 0145.21 42c-.12-.13-.24-.25-.35-.38a6 6 0 119.09.12c-.11.13-.22.24-.34.36a5.77 5.77 0 01-2.19 1.34v-1a5 5 0 002.52-2.34 4.31 4.31 0 00.32-.82z"></path><path class="cls-2" d="M58.63 56.86c-.53.25-1.06.48-1.6.68V59a1.5 1.5 0 001.5 1.5A1.55 1.55 0 0060 59v-2.89q-.65.41-1.37.75zm-7.67 2V59a1.27 1.27 0 000 .34 1.5 1.5 0 001.47 1.17A1.55 1.55 0 0054 59v-.57a20.78 20.78 0 01-3 .46zm7.67-2c-.53.25-1.06.48-1.6.68V59a1.5 1.5 0 001.5 1.5A1.55 1.55 0 0060 59v-2.89q-.65.41-1.37.75zm-7.67 2V59a1.27 1.27 0 000 .34 1.5 1.5 0 001.47 1.17A1.55 1.55 0 0054 59v-.57a20.78 20.78 0 01-3 .46zm7.67-2c-.53.25-1.06.48-1.6.68V59a1.5 1.5 0 001.5 1.5A1.55 1.55 0 0060 59v-2.89q-.65.41-1.37.75zm-7.67 2V59a1.27 1.27 0 000 .34 1.5 1.5 0 001.47 1.17A1.55 1.55 0 0054 59v-.57a20.78 20.78 0 01-3 .46zm7.67-2c-.53.25-1.06.48-1.6.68V59a1.5 1.5 0 001.5 1.5A1.55 1.55 0 0060 59v-2.89q-.65.41-1.37.75zm-7.67 2V59a1.27 1.27 0 000 .34 1.5 1.5 0 001.47 1.17A1.55 1.55 0 0054 59v-.57a20.78 20.78 0 01-3 .46zm7.67-2c-.53.25-1.06.48-1.6.68V59a1.5 1.5 0 001.5 1.5A1.55 1.55 0 0060 59v-2.89q-.65.41-1.37.75zm-7.67 2V59a1.27 1.27 0 000 .34 1.5 1.5 0 001.47 1.17A1.55 1.55 0 0054 59v-.57a20.78 20.78 0 01-3 .46zm7.67-2c-.53.25-1.06.48-1.6.68V59a1.5 1.5 0 001.5 1.5A1.55 1.55 0 0060 59v-2.89q-.65.41-1.37.75zM51 59a1.27 1.27 0 000 .34 1.5 1.5 0 001.47 1.17A1.55 1.55 0 0054 59v-.57a20.78 20.78 0 01-3 .43zm0-16.93a4.56 4.56 0 002.86-3 3.28 3.28 0 00-.31-.86 4.2 4.2 0 00-.94-1.21 4.53 4.53 0 00-6.42 0 3.89 3.89 0 00-.77 1.05 3.68 3.68 0 00-.35.82 4.51 4.51 0 002.8 3.14v-1.8a1.53 1.53 0 012.62-1.09 1.53 1.53 0 01.45 1.08zM72.18 54a4.46 4.46 0 00-1.34-3.21 4.51 4.51 0 00-3.14-1.33h-.58a5.1 5.1 0 00-.68.13 4.26 4.26 0 00-1.12.48c-.07-.09-.14-.19-.21-.27a4 4 0 00-.33-.37 5.08 5.08 0 00-.35-.32 4.46 4.46 0 00-2.86-1 4.37 4.37 0 00-2.42.71l-.26-.32a1.57 1.57 0 00-.19-.18.75.75 0 00-.16-.15l-.37-.32a4 4 0 00-.9-.5 2.92 2.92 0 00-.52-.19 3 3 0 00-.52-.1 3.64 3.64 0 00-.74-.07 4.43 4.43 0 00-1.52.27v-7a1 1 0 000-.17 4.1 4.1 0 00-.14-.94 3.28 3.28 0 00-.31-.86 4.2 4.2 0 00-.91-1.29 4.53 4.53 0 00-6.42 0 3.89 3.89 0 00-.77 1.05 3.68 3.68 0 00-.35.82 4 4 0 00-.19.92v21.43l-4-3a4.54 4.54 0 00-6.22 6.61l8.31 7a16.42 16.42 0 013.74 4.41A13.63 13.63 0 0058.56 83 13.67 13.67 0 0072.2 69.36zm-6.1 22.9a10.61 10.61 0 01-7.52 3.1 10.72 10.72 0 01-9.25-5.34 19.44 19.44 0 00-4.41-5.22l-8.16-6.84a1.55 1.55 0 01-.05-2.16 1.57 1.57 0 011.12-.44 1.49 1.49 0 011.07.44l6.6 5 .21.13.23.1.24.06h.65a2.23 2.23 0 00.24-.08 1.31 1.31 0 00.23-.15 1.83 1.83 0 00.2-.17.5.5 0 00.11-.13l.12-.19a.72.72 0 00.1-.25 1 1 0 00.06-.23V40.26a1.53 1.53 0 012.62-1.09 1.53 1.53 0 01.45 1.08V59a1.27 1.27 0 000 .34 1.5 1.5 0 001.47 1.17A1.55 1.55 0 0054 59v-7.5a1.56 1.56 0 011.48-1.5A1.52 1.52 0 0157 51.5V59a1.5 1.5 0 001.5 1.5A1.55 1.55 0 0060 59v-6.4a1.53 1.53 0 011.53-1.53 1.5 1.5 0 01.86.26 1.32 1.32 0 01.22.18l.13.15a1.51 1.51 0 01.33.94V59a1.49 1.49 0 001.5 1.5 1.53 1.53 0 001.5-1.5v-5a1.58 1.58 0 011.53-1.54A1.54 1.54 0 0169.17 54v15.39a10.65 10.65 0 01-3.09 7.51zM53.49 38.28a4.2 4.2 0 00-.88-1.28 4.53 4.53 0 00-6.42 0 3.89 3.89 0 00-.77 1.05 3.68 3.68 0 00-.35.82 4.51 4.51 0 002.8 3.14v-1.8a1.53 1.53 0 012.62-1.09 1.53 1.53 0 01.45 1.08v1.9a4.56 4.56 0 002.86-3 3.28 3.28 0 00-.31-.82zM51 58.89V59a1.27 1.27 0 000 .34 1.5 1.5 0 001.47 1.17A1.55 1.55 0 0054 59v-.57a20.78 20.78 0 01-3 .46zm7.67-2c-.53.25-1.06.48-1.6.68V59a1.5 1.5 0 001.5 1.5A1.55 1.55 0 0060 59v-2.89q-.65.41-1.37.75zm-7.67 2V59a1.27 1.27 0 000 .34 1.5 1.5 0 001.47 1.17A1.55 1.55 0 0054 59v-.57a20.78 20.78 0 01-3 .46zm7.67-2c-.53.25-1.06.48-1.6.68V59a1.5 1.5 0 001.5 1.5A1.55 1.55 0 0060 59v-2.89q-.65.41-1.37.75zm-7.67 2V59a1.27 1.27 0 000 .34 1.5 1.5 0 001.47 1.17A1.55 1.55 0 0054 59v-.57a20.78 20.78 0 01-3 .46zm7.67-2c-.53.25-1.06.48-1.6.68V59a1.5 1.5 0 001.5 1.5A1.55 1.55 0 0060 59v-2.89q-.65.41-1.37.75zm-7.67 2V59a1.27 1.27 0 000 .34 1.5 1.5 0 001.47 1.17A1.55 1.55 0 0054 59v-.57a20.78 20.78 0 01-3 .46zm7.67-2c-.53.25-1.06.48-1.6.68V59a1.5 1.5 0 001.5 1.5A1.55 1.55 0 0060 59v-2.89q-.65.41-1.37.75zm-7.67 2V59a1.27 1.27 0 000 .34 1.5 1.5 0 001.47 1.17A1.55 1.55 0 0054 59v-.57a20.78 20.78 0 01-3 .46zm7.67-2c-.53.25-1.06.48-1.6.68V59a1.5 1.5 0 001.5 1.5A1.55 1.55 0 0060 59v-2.89q-.65.41-1.37.75zm-7.67 2V59a1.27 1.27 0 000 .34 1.5 1.5 0 001.47 1.17A1.55 1.55 0 0054 59v-.57a20.78 20.78 0 01-3 .46zm7.67-2c-.53.25-1.06.48-1.6.68V59a1.5 1.5 0 001.5 1.5A1.55 1.55 0 0060 59v-2.89q-.65.41-1.37.75zm-7.67 2V59a1.27 1.27 0 000 .34 1.5 1.5 0 001.47 1.17A1.55 1.55 0 0054 59v-.57a20.78 20.78 0 01-3 .46zm7.67-2c-.53.25-1.06.48-1.6.68V59a1.5 1.5 0 001.5 1.5A1.55 1.55 0 0060 59v-2.89q-.65.41-1.37.75z"></path></svg>