 <svg
            width="100"
            xmlns="http://www.w3.org/2000/svg"
            id="Layer_1"
            data-name="Layer 1"
            viewBox="0 0 99.21 99.21"
            class="svg replaced-svg"
          >
            <defs>
              <style>
                .cls-2 {
                  fill: #002139;
                }
              </style>
            </defs>
            <circle cx="42.17" cy="65.96" r="12.88" fill="#00b140"></circle>
            <path
              class="cls-2"
              d="M68.49 53.26A4.87 4.87 0 0066.24 52a4.6 4.6 0 00.09-.91 4.87 4.87 0 00-1.44-3.46 4.75 4.75 0 00-2.38-1.3 4.36 4.36 0 00.05-.72 4.86 4.86 0 00-1.43-3.46 4.75 4.75 0 00-1.38-1l5.32-5.31a4.89 4.89 0 00-6.92-6.92L42.21 44.87l-.73-5.37a4.89 4.89 0 00-9.77.3l1 11.65a18 18 0 01-.52 6.21A14.7 14.7 0 0056.76 71.9l11.73-11.73a4.89 4.89 0 000-6.91zm-14 16.35A11.46 11.46 0 0135.31 58.5a21 21 0 00.61-7.33L35 39.73a1.65 1.65 0 011.61-1.67 1.63 1.63 0 011.17.48 1.61 1.61 0 01.48 1.15l1.2 8.84.07.27a1 1 0 00.1.25 1.42 1.42 0 00.14.23 1 1 0 00.15.19l.17.14.2.13a1.06 1.06 0 00.25.11 1.11 1.11 0 00.28.07h.47l.23-.06a1.61 1.61 0 00.28-.1l.21-.14 18.44-18.4a1.69 1.69 0 012.33 0 1.65 1.65 0 01.48 1.17 1.67 1.67 0 01-.48 1.17l-14.3 14.3a1.62 1.62 0 000 2.29 1.66 1.66 0 002.29 0l5.74-5.74a1.69 1.69 0 012.33 0 1.65 1.65 0 01.48 1.17 1.63 1.63 0 01-.48 1.16l-5.74 5.74a1.62 1.62 0 000 2.29 1.66 1.66 0 002.29 0l4.88-4.87a1.66 1.66 0 012.82 1.16 1.66 1.66 0 01-.49 1.17l-4.87 4.88a1.61 1.61 0 000 2.29 1.66 1.66 0 002.29 0l3.85-3.85a1.68 1.68 0 012.33 0 1.65 1.65 0 010 2.33zm-10.2-38.84a1.61 1.61 0 001.62-1.62V22a1.62 1.62 0 00-3.24 0v7.16a1.62 1.62 0 001.62 1.61z"
            ></path>
            <path
              class="cls-2"
              d="M39.94 33a1.63 1.63 0 002.77-1.14 1.6 1.6 0 00-.48-1.15L38.51 27a1.66 1.66 0 00-2.29 0 1.61 1.61 0 000 2.29zm6.41 0a1.6 1.6 0 001.15.48 1.58 1.58 0 001.14-.48l6.94-6.94a1.61 1.61 0 000-2.29 1.62 1.62 0 00-2.29 0l-6.94 6.94a1.62 1.62 0 000 2.29z"
            ></path>
          </svg>