<svg
            width="100"
            xmlns="http://www.w3.org/2000/svg"
            id="Layer_1"
            data-name="Layer 1"
            viewBox="0 0 99.21 99.21"
            class="svg replaced-svg"
          >
            <path
              d="M41.15 47.63a2.25 2.25 0 011.74 3.28c-2.3 5-6.84 8.24-12.06 8.24s-9.78-3.29-12.07-8.25a2.24 2.24 0 011.73-3.27zm37.57 0a2.24 2.24 0 011.73 3.28c-2.29 5-6.84 8.24-12.06 8.24s-9.78-3.29-12.06-8.25a2.23 2.23 0 011.73-3.27z"
              fill="#00b140"
            ></path>
            <path
              d="M78.53 46.52a.94.94 0 000-.09v-.19l-.12-.12-8.59-19.6-.11-.21a.48.48 0 00-.09-.11l-.06-.08a1.1 1.1 0 00-.15-.14l-.16-.13-.1-.05-.15-.08H53.18a3.89 3.89 0 00-7.15 0H30.58l-.27.07-.15.07-.16.09-.2.15-.08.09-.1.11-.09.13s-.05.08-.07.13l-8.63 19.56-.12.13-.06.61a10.18 10.18 0 1020.35 0l-7.85-18.24H46a3.9 3.9 0 002.07 2.08v34.85h-6.69a3.72 3.72 0 00-3.71 3.72v.36L36 73.91A1.52 1.52 0 0037.43 76h24.36a1.53 1.53 0 001.42-2.07l-1.66-4.28v-.36a3.73 3.73 0 00-3.72-3.72h-6.7V30.7a3.88 3.88 0 002.06-2.08h12.87l-7.72 17.63-.13.61a10.18 10.18 0 1020.36 0zm-17.12 1.86h14a7.14 7.14 0 01-14 0zm.65-3l6.33-14.45 6.33 14.45zM59 71.43l.58 1.51H39.64l.59-1.51zm-8.54-44.31a.85.85 0 11-.85-.85.86.86 0 01.85.85zM23.85 48.38H37.8a7.14 7.14 0 01-13.95 0zm.64-3l6.33-14.45 6.34 14.45z"
              fill="#002139"
            ></path>
          </svg>