 <svg
            width="100"
            xmlns="http://www.w3.org/2000/svg"
            id="Layer_1"
            data-name="Layer 1"
            viewBox="0 0 99.21 99.21"
            class="svg replaced-svg"
          >
            <defs>
              <style>
                .cls-2 {
                  fill: #002139;
                }
              </style>
            </defs>
            <path
              d="M49.59 22.05a23.36 23.36 0 010 46.71z"
              fill="#00b140"
            ></path>
            <path
              class="cls-2"
              d="M63.65 31.69A19.67 19.67 0 0051.71 26h-.09a20.87 20.87 0 00-4 0h-.19a19.75 19.75 0 00-17.62 19.66c0 9 4.31 12.87 7.75 16 2.39 2.15 4.11 3.71 4.11 6.43V76A1.35 1.35 0 0043 77.3h1.47a5.31 5.31 0 005.12 4 5.24 5.24 0 005.08-4h1.5a1.34 1.34 0 001.37-1.3v-7.95c0-2.72 1.73-4.28 4.12-6.43 3.43-3.09 7.7-6.94 7.74-16a19.61 19.61 0 00-5.75-13.93zm-11.8 45.57a2.61 2.61 0 01-2.24 1.31 2.66 2.66 0 01-2.24-1.27zm-.37-48.6a17.07 17.07 0 0115.23 17c0 7.82-3.66 11.09-6.86 14-2.27 2.05-4.42 4-4.87 7.09H44.26c-.48-3.13-2.63-5.06-4.9-7.11-3.2-2.88-6.82-6.15-6.85-14a17.07 17.07 0 0115.24-17h.12a16.9 16.9 0 011.74-.09 17.19 17.19 0 011.74.09zm3.4 42H44.36V69.4h10.49zm-10.52 2.69h10.49v1.29H44.33zm5.25-50.07A1.34 1.34 0 0051 21.94V19.3a1.35 1.35 0 00-2.69 0v2.64a1.34 1.34 0 001.3 1.34zM25.89 44.31h-2.64a1.35 1.35 0 000 2.69h2.64a1.35 1.35 0 000-2.69zm50.11 0h-2.68a1.35 1.35 0 000 2.69H76a1.35 1.35 0 000-2.69zM32.84 29.48a1.35 1.35 0 001.91-1.91l-2.64-2.63a1.37 1.37 0 00-1.9 0 1.33 1.33 0 000 1.9zm34.85 31.03a1.35 1.35 0 00-1.91 1.91l2.64 2.63a1.34 1.34 0 101.9-1.9zm-2.27-30.64a1.36 1.36 0 001-.39L69 26.84a1.33 1.33 0 000-1.9 1.37 1.37 0 00-1.9 0l-2.63 2.63a1.35 1.35 0 001 2.3zM31.53 60.51l-2.64 2.64a1.35 1.35 0 000 1.9 1.32 1.32 0 00.95.4 1.31 1.31 0 00.95-.4l2.64-2.63a1.35 1.35 0 00-1.9-1.91z"
            ></path>
            <path
              class="cls-2"
              d="M49.6 31.13c-.65 0-1.25.05-1.8.11a1.34 1.34 0 00-1.12 1L46.16 34a7.19 7.19 0 00-.78.27l-1.53-1.15a1.36 1.36 0 00-1.46-.1 15 15 0 00-2.85 2 1.34 1.34 0 00-.35 1.45l.64 1.73a5.67 5.67 0 00-.45.64l-1.93-.05a1.38 1.38 0 00-1.26.78 14.83 14.83 0 00-1.08 3.3 1.35 1.35 0 00.57 1.38l1.57 1v.4a2.17 2.17 0 000 .37l-1.57 1.06a1.33 1.33 0 00-.56 1.38 14.46 14.46 0 001.1 3.31 1.36 1.36 0 001.25.76l1.91-.07a5.57 5.57 0 00.48.62l-.63 1.76a1.34 1.34 0 00.36 1.45 15.12 15.12 0 002.86 2 1.38 1.38 0 001.46-.11l1.49-1.15c.28.09.55.18.8.24l.54 1.79a1.35 1.35 0 001.14.94c.6.07 1.17.1 1.72.11h.28a11.37 11.37 0 001.52-.12 1.34 1.34 0 001.13-1l.51-1.77c.27-.08.54-.17.79-.27l1.53 1.15a1.36 1.36 0 001.45.1 14.79 14.79 0 002.85-2 1.37 1.37 0 00.34-1.38l-.65-1.72a4.71 4.71 0 00.45-.64h2a1.36 1.36 0 001.2-.73 13.94 13.94 0 001.08-3.31 1.33 1.33 0 00-.57-1.37L62 46v-.4a2.17 2.17 0 000-.37l1.57-1.06a1.37 1.37 0 00.57-1.38A14.79 14.79 0 0063 39.5a1.37 1.37 0 00-1.26-.76l-1.9.07c-.16-.22-.32-.44-.48-.63l.64-1.75a1.31 1.31 0 00-.39-1.43 14.33 14.33 0 00-2.85-2 1.34 1.34 0 00-1.46.11l-1.5 1.15c-.28-.1-.55-.18-.79-.24l-.55-1.79a1.36 1.36 0 00-1.13-.95 17.22 17.22 0 00-1.73-.15zm7 6.86a1.35 1.35 0 00.26 1.36 9.21 9.21 0 011.14 1.5 1.38 1.38 0 001.19.66l1.75-.08c.14.36.26.72.37 1l-1.44 1a1.33 1.33 0 00-.59 1.24 7.6 7.6 0 01.05.94v.93a1.35 1.35 0 00.59 1.25l1.44.93-.32 1h-1.79a1.38 1.38 0 00-1.19.66 9.53 9.53 0 01-1.11 1.5 1.37 1.37 0 00-.26 1.37l.59 1.57c-.3.24-.62.47-.91.69l-1.42-1.07a1.37 1.37 0 00-1.34-.15 10 10 0 01-1.81.58 1.34 1.34 0 00-1 .93l-.46 1.64h-1.27l-.5-1.65a1.36 1.36 0 00-1-.93 9.84 9.84 0 01-1.82-.57 1.23 1.23 0 00-.53-.11 1.32 1.32 0 00-.81.27L43 55.57c-.33-.21-.65-.43-1-.64l.58-1.62a1.35 1.35 0 00-.19-1.31 8.61 8.61 0 01-1.12-1.5 1.38 1.38 0 00-1.19-.65l-1.76.07c-.13-.35-.25-.71-.36-1l1.44-1a1.33 1.33 0 00.6-1.32 9 9 0 010-.92v-.93a1.34 1.34 0 00-.6-1.25l-1.4-.94c.1-.36.22-.72.32-1.05l1.78.05a1.39 1.39 0 001.19-.66 9.62 9.62 0 011.11-1.51 1.33 1.33 0 00.22-1.39L42 36.45c.31-.24.63-.47.92-.68l1.41 1.06a1.35 1.35 0 001.34.16 9.88 9.88 0 011.82-.58 1.36 1.36 0 001-.94l.51-1.63h1.17l.5 1.65a1.36 1.36 0 001 .93 9.51 9.51 0 011.81.57 1.34 1.34 0 001.34-.17l1.38-1.06c.33.2.65.43.94.64z"
            ></path>
            <path
              class="cls-2"
              d="M49.61 38.89a6.77 6.77 0 106.76 6.76 6.77 6.77 0 00-6.76-6.76zm0 10.73a4 4 0 114-4 4 4 0 01-4 4z"
            ></path>
          </svg>