<svg
            width="100"
            xmlns="http://www.w3.org/2000/svg"
            id="Layer_1"
            data-name="Layer 1"
            viewBox="0 0 99.21 99.21"
            class="svg replaced-svg"
          >
            <defs>
              <style>
                .cls-2 {
                  fill: #002139;
                }
              </style>
            </defs>
            <path
              d="M75.18 33.75v16.79c0 20.66-19.36 27.12-19.36 27.12a28.28 28.28 0 01-5-2.45 34.69 34.69 0 01-3.89-2.73 27.39 27.39 0 01-10.48-21.94V33.75c5.43 0 10.51-2.14 14.1-4.17a42.75 42.75 0 004.19-2.72 29.6 29.6 0 004.57 1.66 37.75 37.75 0 007.74 3.77 24.89 24.89 0 008.13 1.46z"
              fill="#00b140"
            ></path>
            <path
              class="cls-2"
              d="M43.69 55.36a2.15 2.15 0 01-1.52-.62l-5-5a2.14 2.14 0 013-3l3.48 3.48 8.47-8.48a2.14 2.14 0 013 3l-10 10a2.14 2.14 0 01-1.43.62z"
            ></path>
            <path
              class="cls-2"
              d="M64.91 29.3a21.57 21.57 0 01-5.6-.78 29.6 29.6 0 01-4.57-1.66 37.06 37.06 0 01-7.81-4.79 2.13 2.13 0 00-2.78 0c-.09.07-8.59 7.23-18 7.23A2.14 2.14 0 0024 31.44v16.79c0 22 20.62 29.08 20.83 29.15a2.16 2.16 0 001.36 0 30.31 30.31 0 004.56-2.17c6.13-3.48 16.27-11.59 16.27-27V31.44a2.14 2.14 0 00-2.11-2.14zm-2.14 18.93c0 15.18-11.18 22-15.88 24.25-.54.25-1 .44-1.34.58-3.26-1.33-17.24-8-17.24-24.83V33.49c7.76-.71 14.43-5 17.23-7.08a43.34 43.34 0 005 3.17 32.57 32.57 0 0012.22 3.91z"
            ></path>
          </svg>