 <svg
            width="100"
            xmlns="http://www.w3.org/2000/svg"
            id="Layer_1"
            data-name="Layer 1"
            viewBox="0 0 99.21 99.21"
            class="svg replaced-svg"
          >
            <defs>
              <style>
                .cls-1 {
                  fill: #002139;
                }
              </style>
            </defs>
            <path
              class="cls-1"
              d="M76.21 60.91l-.84-20.7A4.32 4.32 0 0071.1 36a4.37 4.37 0 00-4.3 4.23l-.67 14.39a2.34 2.34 0 00-.38 0 4.24 4.24 0 00-3.19 1.23l-4.34 4.34a10.87 10.87 0 00-7.69 10.42v4.14a3.88 3.88 0 003.87 3.87h8.47a3.88 3.88 0 003.88-3.88v-.25l6.62-6.61a8.16 8.16 0 002.84-6.97zm-4.91 4.87l-7.48 7.47v1.47a1 1 0 01-1 1H54.4a1 1 0 01-.95-1v-4.16a7.93 7.93 0 015.9-7.69l.38-.1 4.88-4.89a1.32 1.32 0 01.93-.38h.06a1.28 1.28 0 01.94.47 1.41 1.41 0 01-.2 1.82l-4.51 4.51a1.46 1.46 0 102.06 2.07l4.52-4.51a4.34 4.34 0 00.59-5.52l.74-16a1.45 1.45 0 011.38-1.45 1.39 1.39 0 011.35 1.42L73.28 61c0 2.23-.2 3-1.98 4.78zM41 60.15l-4.34-4.34a4.27 4.27 0 00-3.2-1.23 2.43 2.43 0 00-.38 0l-.67-14.39A4.36 4.36 0 0028.13 36a4.32 4.32 0 00-4.27 4.22L23 61a8.11 8.11 0 002.85 6.88l6.62 6.61v.29a3.82 3.82 0 003.83 3.84h8.55a3.85 3.85 0 003.84-3.83v-4.22A10.88 10.88 0 0041 60.15zm4.75 14.6a.91.91 0 01-.91.91H36.3a.92.92 0 01-.91-.92v-1.5l-7.48-7.47c-1.79-1.78-2-2.55-2-4.75l.84-20.7a1.39 1.39 0 011.34-1.42 1.45 1.45 0 011.38 1.45l.75 16a4.33 4.33 0 00.56 5.52l4.51 4.51a1.46 1.46 0 102.07-2.07l-4.51-4.51a1.38 1.38 0 01-.2-1.82 1.28 1.28 0 01.93-.47 1.32 1.32 0 011 .38l4.89 4.89.38.1a7.92 7.92 0 015.89 7.69z"
            ></path>
            <path
              d="M71.05 33a2.62 2.62 0 000-3.79 31.23 31.23 0 00-42.92 0 2.64 2.64 0 000 3.83L47.36 56.7a2.89 2.89 0 004.49 0z"
              fill="#00b140"
            ></path>
            <path
              class="cls-1"
              d="M65 45.44a6.93 6.93 0 00-2.51-3 6.59 6.59 0 00-2.13-.95 4.21 4.21 0 002.43-3.8 4.09 4.09 0 00-.33-1.69 4.14 4.14 0 00-1.52-1.84 4.19 4.19 0 00-4.69 6.94l.22.14h-.22A8 8 0 0054.54 40a7.76 7.76 0 00-2.26-.83 5.15 5.15 0 001.6-1.52 5.23 5.23 0 00.88-2.89 5.17 5.17 0 00-2.28-4.28 5.21 5.21 0 00-4.89-.48 5.11 5.11 0 00-2.27 1.87 5.16 5.16 0 001.4 7.16l.21.13a7.94 7.94 0 00-4 2.11h-.22A4.2 4.2 0 0044.08 40a4.19 4.19 0 00-3.46-6.53 3.77 3.77 0 00-1.62.33 4.3 4.3 0 00-1.84 1.51 4.22 4.22 0 00-.38 4 4.12 4.12 0 001.51 1.84 4 4 0 00.57.32 6.51 6.51 0 00-.94.32 6.91 6.91 0 00-3 2.5 6.82 6.82 0 00-1.19 3.86v2.21a1.69 1.69 0 00.13.63 1.59 1.59 0 00.58.7 1.62 1.62 0 00.9.28h28.59a1.51 1.51 0 00.63-.13 1.63 1.63 0 001-1.48v-2.23a6.87 6.87 0 00-.56-2.69zm-7.35-.35zm-.54-1.41zm-15.46 1.06zm-.3 1.44zm.73-7.94a1.56 1.56 0 01-.58.69 1.6 1.6 0 01-1.5.15 1.58 1.58 0 01-.7-.58 1.52 1.52 0 01-.27-.88 1.56 1.56 0 01.7-1.32 1.6 1.6 0 012.2.43 1.56 1.56 0 01.27.89 1.66 1.66 0 01-.12.62zm-1.49 11.11h-4.31v-1.22a4.16 4.16 0 01.34-1.67 4.26 4.26 0 014-2.63h.65l-.23.55-.15.53-.15 1.49zM52 35.72a2.54 2.54 0 01-1 1.17 2.57 2.57 0 01-2.42.24 2.63 2.63 0 01-1.13-.93 2.58 2.58 0 01-.43-1.43 2.45 2.45 0 01.2-1 2.57 2.57 0 01.92-1.12 2.61 2.61 0 012.42-.24 2.63 2.63 0 011.13.93 2.59 2.59 0 01.44 1.43 2.56 2.56 0 01-.13.95zm-3.46 5.9h2.18a5.21 5.21 0 012.59.67 5.4 5.4 0 011.89 1.76l.12.21.2.37.28.69.14.54.09.69v2.8H43.18V47l.08-.93.18-.72.09-.27.38-.78a1.48 1.48 0 01.13-.21 5.44 5.44 0 011.89-1.77 5.24 5.24 0 012.58-.7zM56.68 46zm2-2.17a4.29 4.29 0 013.57 1.9 4.28 4.28 0 01.74 2.4v1.22h-4.37v-3.54l-.29-1.31-.14-.38-.19-.29zm1.45-5.59a1.56 1.56 0 01-.58.69 1.6 1.6 0 01-1.5.15 1.64 1.64 0 01-.7-.58 1.6 1.6 0 01-.27-.88 1.47 1.47 0 01.13-.62 1.56 1.56 0 01.57-.7 1.62 1.62 0 011.51-.14 1.6 1.6 0 01.69.57 1.56 1.56 0 01.27.89 1.65 1.65 0 01-.17.62z"
            ></path>
          </svg>